<?xml version="1.0" standalone="no"?>
<!DOCTYPE svg PUBLIC "-//W3C//DTD SVG 20010904//EN"
 "http://www.w3.org/TR/2001/REC-SVG-20010904/DTD/svg10.dtd">
<svg version="1.0" xmlns="http://www.w3.org/2000/svg"
 width="1024.000000pt" height="509.000000pt" viewBox="0 0 1024.000000 509.000000"
 preserveAspectRatio="xMidYMid meet">
<metadata>
Created by potrace 1.16, written by Peter Selinger 2001-2019
</metadata>
<g transform="translate(0.000000,509.000000) scale(0.100000,-0.100000)"
fill="#000000" stroke="none">
<path d="M910 3105 l0 -1005 185 0 185 0 0 355 0 355 733 0 732 0 254 -355
254 -355 238 0 239 0 -91 123 c-51 67 -119 160 -153 206 -33 46 -115 157 -182
246 -119 161 -121 164 -95 170 55 14 154 68 212 117 161 133 240 322 225 535
-17 238 -145 442 -339 538 -150 74 -58 69 -1289 72 l-1108 4 0 -1006z m2144
620 c98 -26 173 -94 204 -184 38 -108 -36 -255 -154 -307 -96 -42 -130 -44
-996 -44 l-828 0 0 275 0 275 858 0 c734 0 866 -2 916 -15z M3939 3123 c0
-544 -2 -996 -4 -1005 -3 -17 12 -18 201 -18 l204 0 0 1005 0 1005 -200 0
-200 0 -1 -987z M6980 3925 l0 -185 483 -2 482 -3 3 -817 2 -818 200 0 200 0
0 820 0 820 495 0 495 0 0 185 0 185 -1180 0 -1180 0 0 -185z M5023 4058 c-81
-27 -171 -106 -209 -183 -34 -71 -41 -161 -36 -487 l4 -248 1004 0 1004 0 0
310 c0 289 -1 315 -21 373 -27 80 -76 146 -141 190 -101 68 -84 67 -852 67
-674 -1 -693 -1 -753 -22z M4782 2722 l3 -347 33 -67 c51 -104 138 -172 252
-197 64 -13 897 -23 1190 -13 l245 8 66 32 c93 45 168 127 197 216 21 63 22
84 22 391 l0 325 -1006 0 -1005 0 3 -348z M3450 2010 c-267 -48 -397 -292
-286 -536 103 -224 449 -280 640 -104 27 25 60 70 79 109 30 61 32 73 32 166
0 89 -3 106 -27 156 -55 111 -169 190 -300 209 -71 11 -76 11 -138 0z m169
-116 c180 -53 243 -298 112 -437 -50 -54 -104 -79 -181 -85 -121 -8 -223 42
-273 135 -122 228 85 464 342 387z M6402 2009 c-122 -20 -223 -93 -274 -197
-31 -62 -33 -74 -33 -167 0 -93 2 -105 32 -166 57 -116 158 -187 296 -209 229
-36 437 111 462 330 24 204 -112 375 -325 409 -73 12 -84 12 -158 0z m181
-116 c190 -53 251 -305 108 -444 -78 -75 -184 -98 -300 -63 -209 62 -251 371
-65 480 79 46 159 55 257 27z M8844 2005 c-96 -30 -155 -81 -174 -151 -27 -94
18 -177 113 -213 29 -10 111 -29 182 -40 196 -32 245 -56 245 -122 0 -72 -94
-115 -234 -107 -95 5 -163 32 -218 85 l-37 36 -40 -32 c-23 -18 -41 -36 -41
-41 0 -20 106 -101 158 -121 77 -30 264 -39 343 -15 69 20 128 58 159 104 21
30 25 47 25 108 0 70 -2 74 -35 109 -54 56 -110 74 -328 106 -101 14 -163 43
-176 82 -27 76 45 126 185 127 105 0 160 -18 211 -67 l37 -36 40 32 c23 18 41
36 41 40 0 13 -64 68 -100 86 -87 44 -264 59 -356 30z M910 1645 l0 -365 289
0 289 0 3 28 c2 15 3 39 1 55 l-3 27 -230 0 -229 0 0 310 0 310 -60 0 -60 0 0
-365z M1850 2001 c0 -12 -85 -203 -219 -495 -56 -121 -101 -221 -101 -223 0
-2 26 -3 58 -3 l57 0 44 95 44 95 187 0 187 0 44 -95 43 -95 58 0 c32 0 58 4
58 8 0 5 -37 89 -83 188 -46 98 -119 259 -163 356 l-79 177 -67 1 c-38 0 -68
-4 -68 -9z m145 -284 c37 -81 65 -150 63 -153 -3 -2 -68 -3 -145 -2 l-139 3
70 157 c39 86 74 153 78 150 3 -4 37 -74 73 -155z M2380 1644 l0 -366 248 4
c243 3 248 3 304 30 98 45 139 140 103 233 -18 48 -72 95 -110 95 -20 1 -20 1
0 12 64 35 98 91 98 163 0 59 -20 102 -63 139 -57 47 -112 56 -357 56 l-223 0
0 -366z m458 254 c36 -11 72 -58 72 -95 0 -36 -22 -74 -54 -91 -25 -13 -66
-18 -198 -20 l-168 -4 0 111 0 110 118 3 c134 3 183 0 230 -14z m20 -313 c64
-26 92 -102 56 -154 -31 -43 -70 -51 -254 -51 l-170 0 0 110 0 110 165 0 c124
0 174 -4 203 -15z M4020 1646 l0 -366 55 0 54 0 3 133 3 132 122 3 122 3 103
-136 103 -135 117 0 118 0 44 95 45 95 184 0 184 0 44 -95 44 -94 58 -1 c31 0
57 3 57 8 0 4 -59 135 -130 292 -72 157 -145 318 -163 358 l-32 72 -60 -2 -59
-3 -161 -352 c-88 -194 -162 -352 -165 -352 -3 0 -21 23 -40 51 -19 28 -61 84
-92 124 -32 41 -58 76 -58 79 0 2 15 11 33 18 44 19 115 101 123 143 22 118
-20 217 -111 263 -48 26 -54 26 -297 29 l-248 4 0 -366z m475 250 c70 -30 96
-122 52 -187 -40 -61 -71 -69 -254 -69 l-163 0 0 135 0 135 165 0 c122 0 175
-4 200 -14z m691 -218 l52 -118 -144 0 -144 0 14 33 c33 75 109 243 118 261
10 18 12 16 31 -20 11 -21 44 -92 73 -156z M5410 1960 l0 -50 130 0 130 0 0
-315 0 -315 65 0 65 0 0 315 0 315 130 0 130 0 0 50 0 50 -325 0 -325 0 0 -50z
M7000 1645 l0 -365 55 0 54 0 3 133 3 132 120 3 120 3 104 -136 103 -135 64 0
c35 0 64 3 64 7 0 6 -74 106 -192 260 -6 8 4 17 34 31 45 20 103 78 119 119 5
13 9 52 9 86 -1 75 -31 141 -80 175 -66 44 -118 52 -357 52 l-223 0 0 -365z
m488 245 c13 -8 33 -32 44 -53 35 -69 4 -153 -68 -183 -24 -10 -80 -14 -194
-14 l-160 0 0 136 0 136 178 -4 c136 -2 182 -6 200 -18z M7760 1645 l0 -365
60 0 60 0 0 365 0 365 -60 0 -60 0 0 -365z M7990 1645 l0 -365 305 0 305 0 0
50 0 50 -250 0 -250 0 0 110 0 110 230 0 230 0 0 50 0 50 -230 0 -230 0 0 105
0 105 245 0 245 0 0 50 0 50 -300 0 -300 0 0 -365z"/>
</g>
</svg>
